<?xml version="1.0" standalone="no"?>
<!DOCTYPE svg PUBLIC "-//W3C//DTD SVG 20010904//EN"
 "http://www.w3.org/TR/2001/REC-SVG-20010904/DTD/svg10.dtd">
<svg version="1.0" xmlns="http://www.w3.org/2000/svg"
 width="700.000000pt" height="700.000000pt" viewBox="0 0 700.000000 700.000000"
 preserveAspectRatio="xMidYMid meet">
<metadata>
Created by potrace 1.11, written by Peter Selinger 2001-2013
</metadata>
<g transform="translate(0.000000,700.000000) scale(0.100000,-0.100000)"
fill="#000000" stroke="none">
<path d="M1035 6992 c-29 -6 -93 -55 -120 -92 -34 -46 -49 -119 -35 -174 5
-17 11 -50 14 -73 3 -23 12 -72 21 -110 9 -37 18 -75 20 -83 13 -59 104 -296
136 -353 5 -10 26 -48 46 -84 57 -106 170 -266 248 -349 219 -235 304 -382
360 -619 27 -112 42 -144 87 -186 50 -46 92 -56 243 -57 169 -1 229 12 280 63
83 83 88 154 28 390 -23 90 -33 122 -59 190 -4 11 -8 22 -9 25 -21 62 -105
224 -161 312 -64 99 -124 175 -244 303 -175 188 -302 444 -340 682 -13 76 -30
115 -73 161 -48 50 -106 63 -277 61 -80 -1 -154 -4 -165 -7z"/>
<path d="M2541 6980 c-81 -37 -133 -112 -133 -195 0 -22 5 -70 12 -105 6 -36
13 -74 15 -85 14 -85 64 -247 113 -365 76 -186 208 -401 324 -529 169 -186
221 -253 281 -361 39 -71 102 -249 112 -317 13 -95 70 -169 150 -196 59 -20
311 -21 368 -1 121 42 169 141 143 294 -46 277 -179 581 -344 790 -39 49 -166
195 -193 222 -30 30 -105 132 -141 193 -85 141 -138 287 -168 461 -15 83 -46
135 -109 179 l-43 30 -171 2 c-154 2 -177 0 -216 -17z"/>
<path d="M375 4368 c-168 -21 -327 -168 -365 -338 -12 -53 -8 -2855 4 -2910 4
-19 9 -44 11 -55 24 -137 87 -300 168 -435 68 -115 230 -296 320 -356 23 -16
48 -35 55 -41 29 -28 226 -133 248 -133 3 0 20 -6 37 -14 42 -19 161 -54 212
-61 22 -4 58 -11 80 -15 23 -6 672 -8 1505 -7 1614 3 1487 -2 1694 64 294 93
555 301 722 578 68 111 146 318 160 422 3 26 8 57 10 68 2 11 7 54 10 95 4 41
7 76 9 78 1 1 88 4 193 6 104 2 194 6 198 9 5 2 34 8 64 11 120 14 304 73 442
141 76 38 241 145 293 190 176 153 312 329 407 525 50 103 111 296 124 395 3
28 8 59 11 70 11 47 9 316 -3 400 -48 325 -181 600 -408 842 -224 239 -549
411 -866 458 -25 4 -58 9 -75 12 -45 9 -5191 9 -5260 1z m5203 -878 c236 -39
446 -221 516 -450 112 -367 -107 -748 -478 -834 -57 -14 -184 -20 -333 -17
l-33 1 0 655 0 655 133 0 c72 0 160 -5 195 -10z"/>
</g>
</svg>
